<?xml version="1.0" encoding="UTF-8"?>
<svg version="1.1" xmlns="http://www.w3.org/2000/svg" width="500" height="500">
<path d="M0 0 C3.36092488 0.58295678 4.97956573 1.61327824 7.35644531 4.03173828 C7.99100647 4.66975372 8.62556763 5.30776917 9.27935791 5.96511841 C9.95545105 6.65983246 10.63154419 7.35454651 11.328125 8.0703125 C12.38987946 9.14199173 12.38987946 9.14199173 13.4730835 10.23532104 C15.73925249 12.52490307 17.99506377 14.82435886 20.25 17.125 C22.49228025 19.40253471 24.7367353 21.67786126 26.98406982 23.95040894 C28.38098491 25.36406739 29.77478833 26.78081021 31.16485596 28.20120239 C35.05360411 32.14858858 39.05407749 35.88501906 43.26385498 39.48898315 C45.62817891 41.54672214 47.81415339 43.75507646 50 46 C53.44776683 49.48433405 56.95913934 52.78212816 60.68359375 55.96484375 C63.16881614 58.14831907 65.57912666 60.3994862 67.99023438 62.6640625 C75.31626233 69.54251962 82.7727303 76.1868369 90.90234375 82.1171875 C91.82144531 82.80039063 92.74054688 83.48359375 93.6875 84.1875 C94.51636719 84.77917969 95.34523437 85.37085938 96.19921875 85.98046875 C98 88 98 88 98.390625 91.04296875 C97.85203392 95.12010319 96.09982108 97.45857625 93 100 C86.63479538 103.62574946 80.57357454 105.13675708 73.26171875 105.09765625 C71.66166992 105.09282227 71.66166992 105.09282227 70.02929688 105.08789062 C68.37510742 105.07532227 68.37510742 105.07532227 66.6875 105.0625 C65.56537109 105.05798828 64.44324219 105.05347656 63.28710938 105.04882812 C60.5246849 105.03707313 57.76237002 105.02064077 55 105 C53.79236656 107.41526688 53.91426343 108.85816505 53.97265625 111.55078125 C53.98659424 112.47068848 54.00053223 113.3905957 54.01489258 114.33837891 C54.03845825 115.81056885 54.03845825 115.81056885 54.0625 117.3125 C54.1560026 132.77907689 53.24411042 148.46988913 41.9453125 160.2578125 C35.81809855 165.74523704 29.59372137 168.62501273 22 172 C21.67 178.93 21.34 185.86 21 193 C22.98 193 24.96 193 27 193 C27.33 193.99 27.66 194.98 28 196 C27.67 196.66 27.34 197.32 27 198 C25.02 198 23.04 198 21 198 C20.67 199.98 20.34 201.96 20 204 C20.99 204.33 21.98 204.66 23 205 C21.51685206 208.9101173 19.53749628 209.94331612 16 212 C15.113125 212.886875 14.22625 213.77375 13.3125 214.6875 C12.549375 215.450625 11.78625 216.21375 11 217 C10.34 217 9.68 217 9 217 C8.9175 218.051875 8.835 219.10375 8.75 220.1875 C7.9404491 224.30271705 6.88290914 226.02972998 4 229 C0.2850299 230.85748505 -3.94513808 230.43559338 -8 230 C-12.83387391 227.58306305 -14.03272578 223.95316149 -15.9609375 219.1875 C-17.40707006 216.1430104 -19.47700999 214.19101764 -22 212 C-22.66 211.34 -23.32 210.68 -24 210 C-26.06874034 209.3574765 -26.06874034 209.3574765 -28 209 C-28.625 207.125 -28.625 207.125 -29 205 C-28.34 204.34 -27.68 203.68 -27 203 C-26.83312552 200.41645782 -26.83312552 200.41645782 -27 198 C-28.98 198 -30.96 198 -33 198 C-33.5625 196.0625 -33.5625 196.0625 -34 194 C-33.67 193.67 -33.34 193.34 -33 193 C-31.02 193 -29.04 193 -27 193 C-27.33 186.4 -27.66 179.8 -28 173 C-30.124375 172.030625 -32.24875 171.06125 -34.4375 170.0625 C-47.19963585 163.83447124 -53.66048064 154.54148388 -58.3125 141.25 C-60.61742634 130.35398459 -61.04613777 119.95675632 -57.9375 109.1875 C-55.50957838 100.76439253 -56.06746637 93.70364719 -57 85 C-62.28 85 -67.56 85 -73 85 C-73.268125 86.30453125 -73.53625 87.6090625 -73.8125 88.953125 C-74.8658355 93.69684369 -76.36711662 98.18034116 -78 102.75 C-79.91804259 108.24937881 -81.39245007 113.44287691 -82.125 119.25 C-82.96179837 125.78030888 -85.15024337 129.48532605 -90.0625 133.8125 C-94.45637987 137.0845382 -97.60709217 137.35952719 -103 137 C-110.37640396 134.45641243 -115.20966939 130.87874814 -119 124 C-119.25 121.125 -119.25 121.125 -119 119 C-116.02148438 119.04882812 -116.02148438 119.04882812 -113.04296875 119.09765625 C-110.79694539 119.08263217 -110.79694539 119.08263217 -108 118 C-106.83894632 115.53662374 -106.02879023 113.0248922 -105.16015625 110.4453125 C-103.79380041 107.56538403 -102.81826621 106.48020243 -100 105 C-96.75 104.8125 -96.75 104.8125 -94 105 C-93.73445313 103.77023438 -93.46890625 102.54046875 -93.1953125 101.2734375 C-92.83871309 99.64058755 -92.48193267 98.00777713 -92.125 96.375 C-91.86396484 95.16263672 -91.86396484 95.16263672 -91.59765625 93.92578125 C-90.62929775 89.51437032 -89.5300773 85.25940436 -88 81 C-88.825 80.79375 -89.65 80.5875 -90.5 80.375 C-95.73631771 78.31787519 -100.82681002 75.56542493 -103.234375 70.30078125 C-103.48703125 69.54152344 -103.7396875 68.78226562 -104 68 C-98.67068913 64.27794162 -93.19229068 60.86854856 -87.5625 57.625 C-86.94745605 57.26728516 -86.33241211 56.90957031 -85.69873047 56.54101562 C-81.24204663 54 -81.24204663 54 -79 54 C-78.90976563 53.34644531 -78.81953125 52.69289062 -78.7265625 52.01953125 C-76.3692585 42.22277861 -70.86748571 30.46257754 -63 24 C-59.15970326 21.71575164 -55.39316469 21.13534134 -51 22 C-47.70818269 24.57620485 -45.57836813 27.12582367 -44 31 C-38.37846603 28.9027666 -33.60158457 25.77969934 -28.5625 22.5625 C-27.58563232 21.93939941 -26.60876465 21.31629883 -25.60229492 20.67431641 C-19.83558205 16.95026822 -14.21276901 13.11496581 -8.8125 8.875 C-8.25570557 8.43873291 -7.69891113 8.00246582 -7.12524414 7.55297852 C-4.31410407 5.27907261 -2.01605178 3.00675764 0 0 Z " fill="#25334A" transform="translate(119,131)"/>
<path d="M0 0 C2.10898239 -0.00957975 4.21693473 -0.04057745 6.32568359 -0.07226562 C26.80266658 -0.23124282 50.25315675 4.98722276 65.77490234 19.24023438 C69.02725557 23.33763134 69.24814838 27.11520751 69.14990234 32.17773438 C69.13685059 33.29619751 69.13685059 33.29619751 69.12353516 34.43725586 C68.83089928 45.71213256 67.00887913 57.33523493 59.33740234 65.99023438 C58.49177734 66.73273438 57.64615234 67.47523438 56.77490234 68.24023438 C56.04658203 68.88605469 55.31826172 69.531875 54.56787109 70.19726562 C50.92906218 72.85893984 46.86578915 74.41718309 42.59521484 75.8046875 C40.39341984 76.61829844 40.39341984 76.61829844 37.77490234 79.24023438 C37.44490234 83.53023438 37.11490234 87.82023437 36.77490234 92.24023438 C23.57490234 92.24023438 10.37490234 92.24023438 -3.22509766 92.24023438 C-3.72009766 86.30023438 -3.72009766 86.30023438 -4.22509766 80.24023438 C-6.9251749 77.89972352 -8.24990851 77.00485603 -11.41259766 75.80273438 C-12.7425666 75.22792829 -14.06945124 74.6459303 -15.39306641 74.05664062 C-16.03961182 73.77095215 -16.68615723 73.48526367 -17.35229492 73.19091797 C-25.6447912 68.98143022 -30.13650041 60.89953015 -33.03759766 52.36523438 C-33.45430444 50.99641573 -33.851575 49.62146204 -34.22509766 48.24023438 C-34.39710693 47.62390137 -34.56911621 47.00756836 -34.74633789 46.37255859 C-37.43081029 34.416321 -35.78909056 19.5079822 -30.10009766 8.74023438 C-26.72155212 3.8157483 -21.64506377 2.06213068 -16.01757812 0.7097168 C-10.72987347 -0.17927219 -5.34984987 0.01462707 0 0 Z " fill="#FBC56A" transform="translate(99.22509765625,220.759765625)"/>
<path d="M0 0 C3.89431805 1.57885475 6.48198787 4.24101735 9.359375 7.19921875 C10.12148285 7.96912895 10.12148285 7.96912895 10.89898682 8.7545929 C12.52083649 10.39419699 14.1358566 12.04031153 15.75 13.6875 C17.86632729 15.84068036 19.98589442 17.99059246 22.109375 20.13671875 C22.62238159 20.65531464 23.13538818 21.17391052 23.66394043 21.70822144 C27.0756925 25.13352312 30.5958354 28.36561056 34.27441406 31.49926758 C36.99070875 33.86161385 39.48839909 36.42402093 42 39 C45.77458468 42.82098147 49.59302762 46.48844848 53.6875 49.96875 C56.29688654 52.26077872 58.81799786 54.63415833 61.34375 57.01757812 C68.02046831 63.31674392 74.79410314 69.30712378 82 75 C83.89612114 76.5204745 85.79196574 78.04129393 87.6875 79.5625 C89.12449468 80.70896699 90.56179506 81.8550516 92 83 C91.41129748 86.0987748 91.15378511 86.86284031 88.6875 89.0625 C78.03923791 95.47681026 64.80967067 94.83738916 53 93 C53.04713135 92.18845459 53.0942627 91.37690918 53.14282227 90.54077148 C53.33065806 86.84032699 53.44716969 83.14088424 53.5625 79.4375 C53.63791016 78.16068359 53.71332031 76.88386719 53.79101562 75.56835938 C54.09391759 68.63639222 54.09391759 68.63639222 51.14331055 62.63012695 C48.84610757 60.80474571 46.59258686 59.36698046 44 58 C42.58267578 57.18982422 42.58267578 57.18982422 41.13671875 56.36328125 C9.95829161 42.98689066 -22.25039117 44.77130053 -53.6875 56.8125 C-55.440625 57.534375 -57.19375 58.25625 -59 59 C-58.67 63.62 -58.34 68.24 -58 73 C-62.62 73 -67.24 73 -72 73 C-69.96897528 65.83966763 -67.54215678 59.03197764 -64.625 52.1875 C-64.25117187 51.27291016 -63.87734375 50.35832031 -63.4921875 49.41601562 C-59.54607663 40.12508678 -53.9734942 36.11813379 -45.5 31.0625 C-29.77807169 21.49676504 -14.34720233 11.55229278 0 0 Z " fill="#0079F3" transform="translate(120,138)"/>
<path d="M0 0 C0.94101563 0.2784375 1.88203125 0.556875 2.8515625 0.84375 C10.61548696 3.38069433 19.16949572 7.16949572 25 13 C25.20365152 15.79122377 25.28202787 18.45957179 25.25 21.25 C25.24613281 22.05034668 25.24226563 22.85069336 25.23828125 23.67529297 C25.13486657 30.90426663 24.28187591 37.88101059 23 45 C20.50562748 43.52119343 18.04056454 42.02695407 15.625 40.421875 C-6.62800385 26.24883088 -37.20587508 21.17000041 -63 26.3125 C-67.37260023 27.34552681 -71.00178754 28.97249737 -75 31 C-75.66 31 -76.32 31 -77 31 C-79.45725425 23.13678639 -79.6230776 15.17326473 -80 7 C-73.23179253 4.08775784 -66.55485688 1.94476278 -59.375 0.3125 C-58.48554687 0.10044922 -57.59609375 -0.11160156 -56.6796875 -0.33007812 C-38.76478818 -4.50583039 -17.68328935 -5.6198947 0 0 Z " fill="#1560D3" transform="translate(145,192)"/>
<path d="M0 0 C2.10898239 -0.00957975 4.21693473 -0.04057745 6.32568359 -0.07226562 C27.17145699 -0.234106 49.72335647 5.23843627 65.77490234 19.24023438 C68.91253595 23.24342208 69.06997055 26.22407485 68.77490234 31.24023438 C68.01306641 30.64275391 68.01306641 30.64275391 67.23583984 30.03320312 C63.23586737 26.95457262 59.40611091 24.32427823 54.77490234 22.24023438 C55.26990234 24.22023437 55.26990234 24.22023437 55.77490234 26.24023438 C53.56402502 25.22483144 51.68780701 24.1734837 49.75146484 22.68945312 C36.44082443 12.71752817 17.91515478 11.47570225 1.77490234 11.24023438 C1.44490234 12.23023438 1.11490234 13.22023437 0.77490234 14.24023438 C-1.12353516 15.12695312 -1.12353516 15.12695312 -3.60009766 15.92773438 C-9.11144713 17.94988418 -13.29099973 21.01449961 -17.87744141 24.63085938 C-20.22509766 26.24023438 -20.22509766 26.24023438 -23.22509766 26.24023438 C-22.12178746 24.65630411 -21.01741222 23.07311569 -19.91259766 21.49023438 C-19.29771484 20.60851562 -18.68283203 19.72679687 -18.04931641 18.81835938 C-16.476767 16.59591268 -14.87141254 14.40830444 -13.22509766 12.24023438 C-15.43390904 12.86354279 -17.6421263 13.48895679 -19.85009766 14.11523438 C-21.69474609 14.63730469 -21.69474609 14.63730469 -23.57666016 15.16992188 C-26.82171785 16.12189811 -30.02520087 17.14734655 -33.22509766 18.24023438 C-31.64737162 12.35262257 -30.21810255 8.09846543 -25.22509766 4.24023438 C-16.88792037 0.07164573 -9.12496814 0.02494865 0 0 Z " fill="#F9B442" transform="translate(99.22509765625,220.759765625)"/>
<path d="M0 0 C65.0395999 -1.20816594 65.0395999 -1.20816594 85.5625 17.3125 C88.35178795 20.38786876 90.65157769 23.57801321 93 27 C92.34 27.33 91.68 27.66 91 28 C88.94879053 27.19879336 86.93344594 26.30537205 84.9375 25.375 C62.32898549 15.2675247 34.05908802 10.05657827 10 18 C7.995204 18.99034995 5.99430227 19.98868479 4 21 C3.34 21 2.68 21 2 21 C-0.21211746 13.94887561 -0.20177072 7.35342179 0 0 Z " fill="#0078F2" transform="translate(66,202)"/>
<path d="M0 0 C11 0 11 0 13.38671875 1.8984375 C13.81597656 2.71570313 14.24523437 3.53296875 14.6875 4.375 C15.37392578 5.59316406 15.37392578 5.59316406 16.07421875 6.8359375 C17 9 17 9 17 11 C19.44389494 8.79910597 20.62073407 6.77037888 22 3.8125 C23.265625 1.6796875 23.265625 1.6796875 25 0 C28.75176194 -0.76107171 32.23052278 -0.61348874 36 0 C37 1 37 1 37.11352539 4.14282227 C37.11336633 5.53402697 37.10767506 6.92523761 37.09765625 8.31640625 C37.0962413 9.04746078 37.09482635 9.77851532 37.09336853 10.53172302 C37.08775408 12.87535632 37.07519922 15.21889539 37.0625 17.5625 C37.05748686 19.14778508 37.05292363 20.73307166 37.04882812 22.31835938 C37.03777997 26.2122761 37.02050572 30.10612205 37 34 C32.71 34 28.42 34 24 34 C23.505 29.05 23.505 29.05 23 24 C22.67 24.66 22.34 25.32 22 26 C19.36 26 16.72 26 14 26 C13.67 25.34 13.34 24.68 13 24 C12.67 27.3 12.34 30.6 12 34 C8.04 34 4.08 34 0 34 C0 22.78 0 11.56 0 0 Z " fill="#203340" transform="translate(341,245)"/>
<path d="M0 0 C12 0 12 0 14.484375 2.1875 C14.90203125 3.115625 15.3196875 4.04375 15.75 5 C16.19859375 5.928125 16.6471875 6.85625 17.109375 7.8125 C17.40328125 8.534375 17.6971875 9.25625 18 10 C18.33 6.7 18.66 3.4 19 0 C20.97909398 -0.02686553 22.95828971 -0.04633375 24.9375 -0.0625 C26.03964844 -0.07410156 27.14179688 -0.08570313 28.27734375 -0.09765625 C31 0 31 0 32 1 C32.1007812 3.36398468 32.13973215 5.69811311 32.1328125 8.0625 C32.13376923 8.76898682 32.13472595 9.47547363 32.13571167 10.20336914 C32.13639333 11.69970793 32.13454005 13.19604967 32.13037109 14.69238281 C32.12502257 16.99030157 32.13031651 19.28802486 32.13671875 21.5859375 C32.13605797 23.03645877 32.1347768 24.48697991 32.1328125 25.9375 C32.13483673 26.6291626 32.13686096 27.3208252 32.13894653 28.03344727 C32.11495224 32.88504776 32.11495224 32.88504776 31 34 C27.17298765 34.76142979 23.80335499 34.92374565 20 34 C16.96266225 31.03535068 14.96012691 27.74631765 13 24 C12.67 27.3 12.34 30.6 12 34 C8.04 34 4.08 34 0 34 C0 22.78 0 11.56 0 0 Z " fill="#203340" transform="translate(188,295)"/>
<path d="M0 0 C11 0 11 0 13.3515625 1.8984375 C13.98191406 3.12433594 13.98191406 3.12433594 14.625 4.375 C15.07101562 5.18710938 15.51703125 5.99921875 15.9765625 6.8359375 C16.31429688 7.55007812 16.65203125 8.26421875 17 9 C17.33 9.66 17.66 10.32 18 11 C18.33 7.37 18.66 3.74 19 0 C22.96 0 26.92 0 31 0 C31 11.22 31 22.44 31 34 C27.04 34 23.08 34 19 34 C16.29352862 30.75223434 14.66047004 28.67051271 13 25 C12.67 27.97 12.34 30.94 12 34 C8.04 34 4.08 34 0 34 C0 22.78 0 11.56 0 0 Z " fill="#203340" transform="translate(245,245)"/>
<path d="M0 0 C3.50625 -0.061875 7.0125 -0.12375 10.625 -0.1875 C11.71893066 -0.21481201 12.81286133 -0.24212402 13.93994141 -0.27026367 C19.38216275 -0.31668879 23.33274797 -0.13897047 28 3 C32.37881226 7.49715853 32.89194609 10.76688585 33.1875 16.875 C33.08354597 22.39495883 32.20351762 26.5804664 28.5625 30.875 C24.89957801 33.91254506 22.27962073 34.12309183 17.67578125 34.09765625 C16.28613159 34.09390991 16.28613159 34.09390991 14.8684082 34.09008789 C13.6949585 34.08098389 12.52150879 34.07187988 11.3125 34.0625 C7.579375 34.041875 3.84625 34.02125 0 34 C0 22.78 0 11.56 0 0 Z M13 10 C13 14.62 13 19.24 13 24 C17.63019987 23.5547002 17.63019987 23.5547002 19 22 C19.1245486 20.35769636 19.17568524 18.70947724 19.1875 17.0625 C19.20167969 16.16660156 19.21585937 15.27070313 19.23046875 14.34765625 C19.23194769 11.80885466 19.23194769 11.80885466 17 10 C15.68 10 14.36 10 13 10 Z " fill="#203340" transform="translate(284,245)"/>
<path d="M0 0 C4.60722274 4.84349057 5.20347129 8.25924484 5.25 14.75 C5.270625 15.45382812 5.29125 16.15765625 5.3125 16.8828125 C5.34796379 21.65269213 4.60845144 24.86009497 2 29 C-3.75013603 33.27574218 -10.024731 33.75295258 -17 33 C-21.07771214 31.73899322 -23.98258188 30.24662956 -26.69921875 26.91796875 C-28.49647995 22.8862747 -28.43875311 19.36354652 -28.375 15 C-28.38660156 14.2059375 -28.39820313 13.411875 -28.41015625 12.59375 C-28.38674958 7.91241621 -28.02166602 4.79700957 -25 1 C-17.43822889 -4.42896387 -8.07387399 -4.54714854 0 0 Z M-14 8 C-15.31164842 10.62329684 -15.13262846 12.63698625 -15.125 15.5625 C-15.12757813 16.55378906 -15.13015625 17.54507812 -15.1328125 18.56640625 C-15.27438431 20.94812348 -15.27438431 20.94812348 -14 22 C-12.35 22 -10.7 22 -9 22 C-9 17.71 -9 13.42 -9 9 C-10.65 8.67 -12.3 8.34 -14 8 Z " fill="#203340" transform="translate(255,297)"/>
<path d="M0 0 C2.4375 1.875 2.4375 1.875 4 4 C4 5.65 4 7.3 4 9 C-0.95 9 -5.9 9 -11 9 C-9.1025 9.4125 -7.205 9.825 -5.25 10.25 C-0.62026797 11.25646349 2.01560756 12.23980531 5 16 C6.1213777 20.03695972 6.25020696 22.2771799 4.875 26.25 C2.03258507 30.41887524 -1.1641494 32.00669015 -6 33 C-13.0663125 33.66932463 -19.16084417 33.37570825 -25 29 C-27.1519437 25.77208445 -27.20086443 24.71599191 -27 21 C-24.91673869 20.97290556 -22.83337559 20.95356127 -20.75 20.9375 C-19.58984375 20.92589844 -18.4296875 20.91429687 -17.234375 20.90234375 C-14.59022872 20.98217908 -12.50173909 21.21356222 -10 22 C-10 21.67 -10 21.34 -10 21 C-10.81984375 20.82984375 -11.6396875 20.6596875 -12.484375 20.484375 C-13.56203125 20.24203125 -14.6396875 19.9996875 -15.75 19.75 C-16.81734375 19.51796875 -17.8846875 19.2859375 -18.984375 19.046875 C-22.36010939 17.87498793 -23.8678386 16.85132273 -26 14 C-26.80334063 10.59272767 -26.63986433 7.43301124 -26 4 C-19.70654018 -4.88488446 -8.86915283 -4.77569768 0 0 Z " fill="#203340" transform="translate(366,297)"/>
<path d="M0 0 C9.24 0 18.48 0 28 0 C28 3.3 28 6.6 28 10 C22.72 10 17.44 10 12 10 C12 10.66 12 11.32 12 12 C16.95 12 21.9 12 27 12 C27 15.3 27 18.6 27 22 C22.05 22 17.1 22 12 22 C12 22.66 12 23.32 12 24 C13.14339844 23.98839844 14.28679687 23.97679687 15.46484375 23.96484375 C16.95572754 23.95546712 18.44661309 23.94636679 19.9375 23.9375 C20.69224609 23.92912109 21.44699219 23.92074219 22.22460938 23.91210938 C24.14994313 23.90347559 26.07535581 23.94775667 28 24 C29 25 29 25 29 34 C19.43 34 9.86 34 0 34 C0 22.78 0 11.56 0 0 Z " fill="#203340" transform="translate(304,295)"/>
<path d="M0 0 C9.24 0 18.48 0 28 0 C28 3.3 28 6.6 28 10 C27 11 27 11 23.83984375 11.09765625 C21.90818359 11.08025391 21.90818359 11.08025391 19.9375 11.0625 C18.64714844 11.05347656 17.35679687 11.04445313 16.02734375 11.03515625 C15.02832031 11.02355469 14.02929688 11.01195312 13 11 C13 11.66 13 12.32 13 13 C14.39025391 12.98259766 14.39025391 12.98259766 15.80859375 12.96484375 C17.00613281 12.95582031 18.20367187 12.94679688 19.4375 12.9375 C20.63246094 12.92589844 21.82742187 12.91429687 23.05859375 12.90234375 C26 13 26 13 27 14 C27.14257189 17.33618231 27.04228157 20.65975606 27 24 C22.38 24 17.76 24 13 24 C13 27.3 13 30.6 13 34 C8.71 34 4.42 34 0 34 C0 22.78 0 11.56 0 0 Z " fill="#203340" transform="translate(188,245)"/>
<path d="M0 0 C1.80535496 3.61070993 -0.51989513 7.91713952 -1.68823242 11.61694336 C-5.24849364 22.2905803 -11.21461074 32.10730537 -21.5546875 37.27734375 C-28.07488005 39.99570296 -33.7276341 41.1340643 -40.8125 41.0625 C-41.97394531 41.05347656 -43.13539062 41.04445312 -44.33203125 41.03515625 C-45.21246094 41.02355469 -46.09289062 41.01195312 -47 41 C-42.31935992 28.76994043 -34.84724431 23.56176972 -23.96484375 17.0390625 C-19.3091356 14.2407663 -14.91430081 11.18443664 -10.5625 7.9375 C-9.95470703 7.4844751 -9.34691406 7.0314502 -8.72070312 6.56469727 C-7.14315213 5.38175836 -5.57129227 4.19123978 -4 3 C-2.66692598 1.99965434 -1.33372647 0.99947561 0 0 Z " fill="#289DFD" transform="translate(119,139)"/>
<path d="M0 0 C4.42399193 -0.46636518 8.5969378 -0.72495939 13 0 C15.75983291 2.48712215 16.52274136 4.49834989 18 8 C19.32 5.36 20.64 2.72 22 0 C26.29 0 30.58 0 35 0 C34.22193685 3.89031573 33.7729525 5.7910207 31.96875 9.0390625 C31.57034912 9.77979004 31.17194824 10.52051758 30.76147461 11.28369141 C30.13704468 12.44263916 30.13704468 12.44263916 29.5 13.625 C25.86791742 20.56812821 23.88609137 26.02639587 24 34 C19.71 34 15.42 34 11 34 C11.04125 32.4325 11.0825 30.865 11.125 29.25 C10.44019118 19.88720407 5.34315532 11.95682364 0.90209961 3.87255859 C0 2 0 2 0 0 Z " fill="#203340" transform="translate(383,245)"/>
<path d="M0 0 C1.29349365 0.00523682 2.5869873 0.01047363 3.91967773 0.01586914 C4.9496714 0.01799156 4.9496714 0.01799156 6.00047302 0.02015686 C8.20144949 0.0257706 10.40232557 0.03832532 12.60327148 0.05102539 C14.09220231 0.05603863 15.58113473 0.06060184 17.07006836 0.06469727 C20.72700223 0.07574446 24.38387707 0.09301826 28.04077148 0.11352539 C28.04077148 3.74352539 28.04077148 7.37352539 28.04077148 11.11352539 C25.07077148 11.11352539 22.10077148 11.11352539 19.04077148 11.11352539 C19.04077148 18.70352539 19.04077148 26.29352539 19.04077148 34.11352539 C14.75077148 34.11352539 10.46077148 34.11352539 6.04077148 34.11352539 C6.04077148 26.52352539 6.04077148 18.93352539 6.04077148 11.11352539 C3.07077148 11.11352539 0.10077148 11.11352539 -2.95922852 11.11352539 C-3.95922852 10.11352539 -3.95922852 10.11352539 -4.09204102 8.08227539 C-4.08946289 7.26758789 -4.08688477 6.45290039 -4.08422852 5.61352539 C-4.08680664 4.79883789 -4.08938477 3.98415039 -4.09204102 3.14477539 C-3.87766544 -0.13390993 -3.34647812 0.12838151 0 0 Z " fill="#203340" transform="translate(268.959228515625,294.886474609375)"/>
<path d="M0 0 C2.94109096 1.24773556 3.6913151 3.06407096 5.0625 5.875 C5.0625 6.535 5.0625 7.195 5.0625 7.875 C4.30710938 8.12894531 3.55171875 8.38289062 2.7734375 8.64453125 C-9.33101359 14.13862649 -14.38852471 34.59923498 -18.79858398 46.22436523 C-23.16946737 57.99424947 -27.04730106 69.93953278 -30.9375 81.875 C-32.2575 81.545 -33.5775 81.215 -34.9375 80.875 C-34.35827805 72.51765467 -32.17221658 64.70420706 -29.875 56.6875 C-29.67497375 55.98379272 -29.47494751 55.28008545 -29.26885986 54.55505371 C-16.35009553 9.24628535 -16.35009553 9.24628535 -3.9375 0.875 C-1.9375 -0.125 -1.9375 -0.125 0 0 Z " fill="#FA9834" transform="translate(64.9375,157.125)"/>
<path d="M0 0 C4.57870045 3.83333061 6.79308163 6.73352202 7.3359375 12.6796875 C7.35972703 14.07798326 7.37243395 15.47650424 7.375 16.875 C7.39949219 17.56980469 7.42398438 18.26460938 7.44921875 18.98046875 C7.47848862 24.16123596 6.21200231 26.99992277 3 31 C1 33 1 33 -1.25 33.5625 C-5.03610897 32.78806862 -6.35968915 30.8238801 -8.765625 27.921875 C-12.12656046 22.68902611 -11.44591713 15.97685418 -11 10 C-9.48607323 4.02781993 -6.82700862 -1.30038259 0 0 Z " fill="#233144" transform="translate(142,244)"/>
<path d="M0 0 C3.78610897 0.77443138 5.10968915 2.7386199 7.515625 5.640625 C10.87897462 10.87723263 10.18837905 17.58175723 9.75 23.5625 C8.88601374 27.19632456 7.45481197 29.81070056 4.875 32.5625 C2.75 33.5625 2.75 33.5625 0.3125 33.625 C-3.84275319 31.90209014 -6.24072361 28.58105278 -8.25 24.5625 C-8.42778623 21.96274068 -8.52753022 19.41425193 -8.5625 16.8125 C-8.59150391 16.10867188 -8.62050781 15.40484375 -8.65039062 14.6796875 C-8.71290753 9.50521116 -7.58983888 6.70166952 -4.25 2.5625 C-2.25 0.5625 -2.25 0.5625 0 0 Z " fill="#223144" transform="translate(95.25,243.4375)"/>
<path d="M0 0 C4.29 0 8.58 0 13 0 C14.67673649 1.67673649 14.12787817 3.72855076 14.13894653 5.96655273 C14.1369223 6.65821533 14.13489807 7.34987793 14.1328125 8.0625 C14.13376923 8.76898682 14.13472595 9.47547363 14.13571167 10.20336914 C14.13639333 11.69970793 14.13454005 13.19604967 14.13037109 14.69238281 C14.12502257 16.99030157 14.13031651 19.28802486 14.13671875 21.5859375 C14.13605797 23.03645877 14.1347768 24.48697991 14.1328125 25.9375 C14.13483673 26.6291626 14.13686096 27.3208252 14.13894653 28.03344727 C14.11495224 32.88504776 14.11495224 32.88504776 13 34 C8.71 34 4.42 34 0 34 C0 22.78 0 11.56 0 0 Z " fill="#203340" transform="translate(223,245)"/>
<path d="M0 0 C0 3.24736412 -0.44677901 4.10852938 -2.08203125 6.80078125 C-2.51966797 7.53103516 -2.95730469 8.26128906 -3.40820312 9.01367188 C-4.10333008 10.1515918 -4.10333008 10.1515918 -4.8125 11.3125 C-9.24520307 18.47661196 -9.24520307 18.47661196 -13 26 C-12.67 26.66 -12.34 27.32 -12 28 C-13.65 28.66 -15.3 29.32 -17 30 C-16.67 34.62 -16.34 39.24 -16 44 C-20.62 44 -25.24 44 -30 44 C-27.96897528 36.83966763 -25.54215678 30.03197764 -22.625 23.1875 C-22.25117187 22.27291016 -21.87734375 21.35832031 -21.4921875 20.41601562 C-18.06789367 12.35367999 -13.62969394 8.05989265 -6.1875 3.6875 C-5.59001953 3.32849609 -4.99253906 2.96949219 -4.37695312 2.59960938 C-2.92186044 1.72655376 -1.46147271 0.86233309 0 0 Z " fill="#1560D1" transform="translate(78,167)"/>
<path d="M0 0 C3.26914978 0.22545861 4.97919567 0.41828931 7.625 2.25 C9.23766232 5.47532464 9.0794969 8.75289888 8.625 12.25 C7.2915855 15.91688987 5.35019045 18.62553045 2.375 21.1875 C-1.27693054 22.59847316 -4.54874124 22.93138855 -8.375 22.25 C-12.31122829 20.20899274 -14.85709259 18.50014075 -16.375 14.25 C-15.116875 14.12625 -13.85875 14.0025 -12.5625 13.875 C-10.31236051 13.44988664 -10.31236051 13.44988664 -8.375 12.25 C-7.11884023 9.70290788 -6.51846028 7.33944134 -5.9453125 4.5625 C-4.9951795 0.70990593 -3.91514297 0.29001059 0 0 Z " fill="#FA9733" transform="translate(23.375,240.75)"/>
<path d="M0 0 C0 0.66 0 1.32 0 2 C-0.721875 2.20625 -1.44375 2.4125 -2.1875 2.625 C-8.51942047 5.72060556 -11.45435234 12.2501208 -14.3125 18.375 C-14.69639893 19.19371582 -15.08029785 20.01243164 -15.47583008 20.85595703 C-22.5823255 36.48236222 -27.20233415 53.155188 -31.7734375 69.6640625 C-32.7422079 73.14892399 -33.81608771 76.58103833 -35 80 C-35.66 80 -36.32 80 -37 80 C-36.42077805 71.64265467 -34.23471658 63.82920706 -31.9375 55.8125 C-31.73747375 55.10879272 -31.53744751 54.40508545 -31.33135986 53.68005371 C-18.41259553 8.37128535 -18.41259553 8.37128535 -6 0 C-3.50907189 -1.24546405 -2.58919267 -0.7767578 0 0 Z " fill="#F5B041" transform="translate(67,158)"/>
<path d="M0 0 C3.06749028 3.83436285 5.43265551 7.30191389 7.875 11.5 C11.75948362 17.93547437 14.82716087 22.32622655 22.375 24.3125 C24.169375 24.6528125 24.169375 24.6528125 26 25 C25.67 25.66 25.34 26.32 25 27 C20.84242715 27.96460574 16.81833617 28.13521809 12.5625 28.125 C11.49128906 28.12757813 10.42007813 28.13015625 9.31640625 28.1328125 C5.85970529 27.9943816 2.42470229 27.48924318 -1 27 C-0.67 18.09 -0.34 9.18 0 0 Z " fill="#155FCD" transform="translate(174,204)"/>
<path d="M0 0 C13.2 0 26.4 0 40 0 C39 6 39 6 38 7 C35.3337397 7.08855161 32.69352886 7.11524673 30.02734375 7.09765625 C29.22970108 7.0962413 28.43205841 7.09482635 27.61024475 7.09336853 C25.05262565 7.08775316 22.49509282 7.07519812 19.9375 7.0625 C18.20768355 7.05748698 16.47786574 7.05292373 14.74804688 7.04882812 C10.49866447 7.03777875 6.24934688 7.02050386 2 7 C0.5393715 4.35261084 0 3.10551666 0 0 Z " fill="#135FCB" transform="translate(96,328)"/>
<path d="M0 0 C12.54 0 25.08 0 38 0 C38 1.98 38 3.96 38 6 C25.46 6 12.92 6 0 6 C0 4.02 0 2.04 0 0 Z " fill="#0079F4" transform="translate(97,318)"/>
<path d="M0 0 C0.99 0.33 1.98 0.66 3 1 C2.17255895 6.88402528 -0.63609804 10.11573411 -5 14 C-8.21408468 15.98943344 -11.51209057 17.55324657 -15 19 C-15.76441406 19.37125 -16.52882812 19.7425 -17.31640625 20.125 C-20.83337313 21.27172574 -24.16006067 21.21587409 -27.8125 21.125 C-28.85180664 21.11146484 -28.85180664 21.11146484 -29.91210938 21.09765625 C-31.60822395 21.07426157 -33.30415871 21.03839641 -35 21 C-35.33 19.68 -35.66 18.36 -36 17 C-32.90694122 15.96898041 -31.26168021 16.0432982 -28.0625 16.25 C-19.07496782 16.3214241 -10.85545245 12.6300723 -4.3359375 6.4921875 C-2.54692372 4.49393234 -1.1975438 2.39508759 0 0 Z " fill="#2E3748" transform="translate(152,275)"/>
<path d="M0 0 C9.9 0 19.8 0 30 0 C27.5280762 4.9438476 25.15866165 5.84182406 20.125 7.6875 C13.67739975 8.63567651 9.44019985 8.16519992 3.6640625 5.265625 C2 4 2 4 0 0 Z " fill="#155CC5" transform="translate(101,339)"/>
<path d="M0 0 C3.5625 0.3125 3.5625 0.3125 5.5 1.8125 C5.850625 2.3075 6.20125 2.8025 6.5625 3.3125 C5.44875 3.539375 4.335 3.76625 3.1875 4 C-0.49125517 4.9075382 -0.49125517 4.9075382 -1.75 7.4375 C-1.976875 8.38625 -2.20375 9.335 -2.4375 10.3125 C-2.76798727 11.68818684 -3.10149192 13.06315118 -3.4375 14.4375 C-3.6540625 15.43136719 -3.6540625 15.43136719 -3.875 16.4453125 C-4.4375 18.3125 -4.4375 18.3125 -6.4375 21.3125 C-10.0117977 20.98756385 -11.99462453 20.67379314 -14.8125 18.375 C-16.4375 16.3125 -16.4375 16.3125 -16.4375 14.3125 C-15.179375 14.18875 -13.92125 14.065 -12.625 13.9375 C-10.37486051 13.51238664 -10.37486051 13.51238664 -8.4375 12.3125 C-7.18134023 9.76540788 -6.58096028 7.40194134 -6.0078125 4.625 C-5.05061719 0.74376971 -3.93563199 0.35778473 0 0 Z " fill="#F8B341" transform="translate(23.4375,240.6875)"/>
<path d="M0 0 C0.66 0.66 1.32 1.32 2 2 C1.8984375 4.015625 1.8984375 4.015625 1 6 C-0.8984375 6.984375 -0.8984375 6.984375 -3.375 7.75 C-8.91436567 9.72663696 -13.05835637 12.76831552 -17.65234375 16.390625 C-20 18 -20 18 -23 18 C-10.7048822 -0.57347583 -10.7048822 -0.57347583 0 0 Z " fill="#303848" transform="translate(99,229)"/>
<path d="M0 0 C4.70588235 0.70588235 4.70588235 0.70588235 6 2 C6.37633296 3.69937853 6.70098348 5.41032714 7 7.125 C7.17273438 8.11371094 7.34546875 9.10242188 7.5234375 10.12109375 C8.06772112 13.40910216 8.55954594 16.69659457 9 20 C7.35 20.33 5.7 20.66 4 21 C-0.21884704 16.39762141 -1.10082654 10.59713965 -1.1875 4.5625 C-1 1 -1 1 0 0 Z " fill="#FFF0A5" transform="translate(72,258)"/>
<path d="M0 0 C7.15117727 0.67463937 11.02342225 5.92060135 15.578125 10.99609375 C17.35011247 13.36273468 18.35041647 15.52932979 19.3125 18.3125 C16.05433255 16.77835122 13.12739477 14.92176667 10.125 12.9375 C5.35780838 9.86830002 0.57593894 7.40487943 -4.6875 5.3125 C-3.581953 0.41650616 -3.581953 0.41650616 0 0 Z " fill="#2C3547" transform="translate(135.6875,228.6875)"/>
<path d="M0 0 C1.31225809 3.93677426 0.3393954 5.7794262 -0.9375 9.6875 C-1.50791016 11.45673828 -1.50791016 11.45673828 -2.08984375 13.26171875 C-2.39019531 14.16535156 -2.69054688 15.06898438 -3 16 C-7.484542 14.6210965 -10.46309903 13.12079497 -14 10 C-12.64412646 5.93237939 -10.0515406 5.13665748 -6.4375 3.3125 C-5.82197266 2.99216797 -5.20644531 2.67183594 -4.57226562 2.34179688 C-3.0526445 1.55253629 -1.52688189 0.77512085 0 0 Z " fill="#0275EA" transform="translate(36,192)"/>
<path d="M0 0 C6.6 0 13.2 0 20 0 C19 2 18 4 17 6 C11.72 6 6.44 6 1 6 C0.67 4.02 0.34 2.04 0 0 Z " fill="#0079F4" transform="translate(97,329)"/>
<path d="M0 0 C1.23556641 0.01740234 1.23556641 0.01740234 2.49609375 0.03515625 C3.32238281 0.04417969 4.14867187 0.05320312 5 0.0625 C5.63808594 0.07410156 6.27617187 0.08570313 6.93359375 0.09765625 C6.93359375 2.07765625 6.93359375 4.05765625 6.93359375 6.09765625 C2.64359375 6.09765625 -1.64640625 6.09765625 -6.06640625 6.09765625 C-2.4780794 0.1171115 -2.4780794 0.1171115 0 0 Z " fill="#1461D4" transform="translate(128.06640625,317.90234375)"/>
<path d="M0 0 C4.62 0 9.24 0 14 0 C11 5 11 5 8.125 6.0625 C4.1314135 5.98262827 2.74209511 4.82274497 0 2 C0 1.34 0 0.68 0 0 Z " fill="#2893EC" transform="translate(109,351)"/>
<path d="M0 0 C1.32 0 2.64 0 4 0 C5.35439668 2.70879335 5.06501451 5.00933268 5 8 C3.02 8.99 3.02 8.99 1 10 C-1 8 -1 8 -1.1875 4.4375 C-1 1 -1 1 0 0 Z " fill="#F0F1F3" transform="translate(97,249)"/>
<path d="M0 0 C1.32 0 2.64 0 4 0 C5.35439668 2.70879335 5.06501451 5.00933268 5 8 C3.02 8.99 3.02 8.99 1 10 C-1.29404844 6.55892734 -1.26293056 5.03160191 -1 1 C-0.67 0.67 -0.34 0.34 0 0 Z " fill="#F2F3F4" transform="translate(141,249)"/>
<path d="M0 0 C0.66 0 1.32 0 2 0 C2.33 2.97 2.66 5.94 3 9 C-1.62 9 -6.24 9 -11 9 C-11 8.67 -11 8.34 -11 8 C-8.36 8 -5.72 8 -3 8 C-2.690625 7.05125 -2.38125 6.1025 -2.0625 5.125 C-1 2 -1 2 0 0 Z " fill="#0276EE" transform="translate(59,202)"/>
<path d="M0 0 C2.31 0 4.62 0 7 0 C6.34 1.32 5.68 2.64 5 4 C2.525 3.01 2.525 3.01 0 2 C0 1.34 0 0.68 0 0 Z " fill="#0275EC" transform="translate(102,340)"/>
</svg>
